<?xml version="1.0" standalone="no"?>
<!DOCTYPE svg PUBLIC "-//W3C//DTD SVG 20010904//EN"
        "http://www.w3.org/TR/2001/REC-SVG-20010904/DTD/svg10.dtd">
<svg version="1.0" xmlns="http://www.w3.org/2000/svg"
     width="1200.000000pt" height="800.000000pt" viewBox="0 0 1200.000000 800.000000"
     preserveAspectRatio="xMidYMid meet">
    <metadata>
        Created by potrace 1.16, written by Peter Selinger 2001-2019
    </metadata>
    <g transform="translate(0.000000,800.000000) scale(0.100000,-0.100000)"
       fill="#000000" stroke="none">
        <path d="M5279 5591 c-709 -308 -1289 -690 -1823 -1201 -106 -102 -397 -412
-391 -418 1 -2 59 38 127 89 251 188 689 466 1016 645 336 185 794 400 1100
516 247 94 707 238 758 238 9 0 15 2 12 5 -4 5 -577 165 -643 181 -11 2 -80
-22 -156 -55z"/>
        <path d="M6640 5455 c-1411 -331 -2775 -963 -3827 -1772 -68 -52 -123 -96
-123 -98 0 -2 32 15 72 37 100 58 504 248 743 350 1055 451 2268 821 3315
1012 329 60 586 93 1027 134 l82 7 -533 188 c-293 103 -541 187 -552 186 -10
0 -102 -20 -204 -44z"/>
        <path d="M8700 5004 c-30 -2 -143 -8 -250 -14 -1699 -95 -3371 -522 -5049
-1292 -212 -97 -801 -385 -801 -391 0 -2 102 37 227 88 707 286 1490 564 2138
759 1115 335 2089 524 3105 603 403 31 1552 20 1652 -16 13 -5 -12 -29 -103
-98 l-120 -91 -162 -6 c-89 -3 -315 -11 -502 -16 -1005 -31 -1791 -89 -2145
-159 -73 -14 -18 -12 88 4 206 30 639 64 1112 86 262 12 1394 20 1460 11 l44
-7 -28 -18 c-51 -34 -320 -263 -450 -385 -171 -159 -376 -384 -459 -502 l-14
-21 -159 20 c-553 70 -1028 101 -1566 101 -701 1 -1147 -48 -1651 -182 -65
-17 -116 -32 -114 -34 1 -2 42 3 90 11 605 98 1529 122 2282 59 377 -31 971
-116 1201 -170 17 -4 28 5 54 45 82 129 210 271 391 434 203 185 333 288 823
657 236 177 476 359 533 405 l103 83 -88 6 c-48 4 -152 12 -232 17 -137 10
-1293 20 -1410 13z"/>
    </g>
</svg>
